<?xml version="1.0" encoding="UTF-8" standalone="no"?>
<!-- Created with Inkscape (http://www.inkscape.org/) -->

<svg
   width="210mm"
   height="182mm"
   viewBox="0 0 210 182"
   version="1.1"
   id="svg5"
   inkscape:version="1.1.2 (0a00cf5339, 2022-02-04)"
   sodipodi:docname="dataflow.svg"
   xmlns:inkscape="http://www.inkscape.org/namespaces/inkscape"
   xmlns:sodipodi="http://sodipodi.sourceforge.net/DTD/sodipodi-0.dtd"
   xmlns="http://www.w3.org/2000/svg"
   xmlns:svg="http://www.w3.org/2000/svg">
  <sodipodi:namedview
     id="namedview7"
     pagecolor="#ffffff"
     bordercolor="#666666"
     borderopacity="1.0"
     inkscape:pageshadow="2"
     inkscape:pageopacity="0.0"
     inkscape:pagecheckerboard="0"
     inkscape:document-units="mm"
     showgrid="false"
     inkscape:zoom="0.6405233"
     inkscape:cx="665.8618"
     inkscape:cy="630.73428"
     inkscape:window-width="2560"
     inkscape:window-height="1403"
     inkscape:window-x="0"
     inkscape:window-y="0"
     inkscape:window-maximized="1"
     inkscape:current-layer="layer1"
     height="296mm" />
  <defs
     id="defs2">
    <rect
       x="710.87891"
       y="359.98438"
       width="18.934437"
       height="15.765069"
       id="rect199509" />
    <clipPath
       clipPathUnits="userSpaceOnUse"
       id="clipPath167">
      <rect
         style="fill:#00ff00;stroke:#00ff00;stroke-width:0.264583"
         id="rect169"
         width="210.16577"
         height="177.4442"
         x="-6.8036146"
         y="3.2819998" />
    </clipPath>
    <clipPath
       clipPathUnits="userSpaceOnUse"
       id="clipPath171">
      <rect
         style="fill:#00ff00;stroke:#00ff00;stroke-width:0.264583"
         id="rect173"
         width="210.16577"
         height="177.4442"
         x="0.0080678454"
         y="0.077451326" />
    </clipPath>
    <clipPath
       clipPathUnits="userSpaceOnUse"
       id="clipPath175">
      <rect
         style="fill:#00ff00;stroke:#00ff00;stroke-width:0.264583"
         id="rect177"
         width="210.16577"
         height="177.4442"
         x="0.0080678454"
         y="0.077451326" />
    </clipPath>
    <clipPath
       clipPathUnits="userSpaceOnUse"
       id="clipPath179">
      <rect
         style="fill:#00ff00;stroke:#00ff00;stroke-width:0.264583"
         id="rect181"
         width="210.16577"
         height="177.4442"
         x="0.0080678454"
         y="0.077451326" />
    </clipPath>
    <clipPath
       clipPathUnits="userSpaceOnUse"
       id="clipPath183">
      <rect
         style="fill:#00ff00;stroke:#00ff00;stroke-width:0.264583"
         id="rect185"
         width="210.16577"
         height="177.4442"
         x="0.0080678454"
         y="0.077451326" />
    </clipPath>
    <clipPath
       clipPathUnits="userSpaceOnUse"
       id="clipPath187">
      <rect
         style="fill:#00ff00;stroke:#00ff00;stroke-width:0.264583"
         id="rect189"
         width="210.16577"
         height="177.4442"
         x="0.0080678454"
         y="0.077451326" />
    </clipPath>
    <clipPath
       clipPathUnits="userSpaceOnUse"
       id="clipPath191">
      <rect
         style="fill:#00ff00;stroke:#00ff00;stroke-width:0.264583"
         id="rect193"
         width="210.16577"
         height="177.4442"
         x="0.0080678454"
         y="0.077451326" />
    </clipPath>
    <clipPath
       clipPathUnits="userSpaceOnUse"
       id="clipPath195">
      <rect
         style="fill:#00ff00;stroke:#00ff00;stroke-width:0.999999"
         id="rect197"
         width="794.32733"
         height="670.65521"
         x="0.030492645"
         y="0.29272941" />
    </clipPath>
    <clipPath
       clipPathUnits="userSpaceOnUse"
       id="clipPath199">
      <rect
         style="fill:#00ff00;stroke:#00ff00;stroke-width:0.264583"
         id="rect201"
         width="210.16577"
         height="177.4442"
         x="0.0080678454"
         y="0.077451326" />
    </clipPath>
    <clipPath
       clipPathUnits="userSpaceOnUse"
       id="clipPath203">
      <rect
         style="fill:#00ff00;stroke:#00ff00;stroke-width:0.264583"
         id="rect205"
         width="210.16577"
         height="177.4442"
         x="0.0080678454"
         y="0.077451326" />
    </clipPath>
    <clipPath
       clipPathUnits="userSpaceOnUse"
       id="clipPath207">
      <rect
         style="fill:#00ff00;stroke:#00ff00;stroke-width:0.264583"
         id="rect209"
         width="210.16577"
         height="177.4442"
         x="0.0080678454"
         y="0.077451326" />
    </clipPath>
    <clipPath
       clipPathUnits="userSpaceOnUse"
       id="clipPath211">
      <rect
         style="fill:#00ff00;stroke:#00ff00;stroke-width:0.264583"
         id="rect213"
         width="210.16577"
         height="177.4442"
         x="0.0080678454"
         y="0.077451326" />
    </clipPath>
    <clipPath
       clipPathUnits="userSpaceOnUse"
       id="clipPath215">
      <rect
         style="fill:#00ff00;stroke:#00ff00;stroke-width:0.264583"
         id="rect217"
         width="210.16577"
         height="177.4442"
         x="0.0080678454"
         y="0.077451326" />
    </clipPath>
    <clipPath
       clipPathUnits="userSpaceOnUse"
       id="clipPath219">
      <rect
         style="fill:#00ff00;stroke:#00ff00;stroke-width:0.264583"
         id="rect221"
         width="210.16577"
         height="177.4442"
         x="0.0080678454"
         y="0.077451326" />
    </clipPath>
    <clipPath
       clipPathUnits="userSpaceOnUse"
       id="clipPath223">
      <rect
         style="fill:#00ff00;stroke:#00ff00;stroke-width:0.264583"
         id="rect225"
         width="210.16577"
         height="177.4442"
         x="0.0080678454"
         y="0.077451326" />
    </clipPath>
    <clipPath
       clipPathUnits="userSpaceOnUse"
       id="clipPath227">
      <rect
         style="fill:#00ff00;stroke:#00ff00;stroke-width:0.264583"
         id="rect229"
         width="210.16577"
         height="177.4442"
         x="-35.669357"
         y="-4.1218624" />
    </clipPath>
    <clipPath
       clipPathUnits="userSpaceOnUse"
       id="clipPath231">
      <rect
         style="fill:#00ff00;stroke:#00ff00;stroke-width:0.264583"
         id="rect233"
         width="210.16577"
         height="177.4442"
         x="0.0080678454"
         y="0.077451326" />
    </clipPath>
    <clipPath
       clipPathUnits="userSpaceOnUse"
       id="clipPath235">
      <rect
         style="fill:#00ff00;stroke:#00ff00;stroke-width:0.264583"
         id="rect237"
         width="210.16577"
         height="177.4442"
         x="0.0080678454"
         y="0.077451326" />
    </clipPath>
    <clipPath
       clipPathUnits="userSpaceOnUse"
       id="clipPath239">
      <rect
         style="fill:#00ff00;stroke:#00ff00;stroke-width:0.264583"
         id="rect241"
         width="210.16577"
         height="177.4442"
         x="0.0080678454"
         y="0.077451326" />
    </clipPath>
    <clipPath
       clipPathUnits="userSpaceOnUse"
       id="clipPath243">
      <rect
         style="fill:#00ff00;stroke:#00ff00;stroke-width:0.264583"
         id="rect245"
         width="210.16577"
         height="177.4442"
         x="0.0080678454"
         y="0.077451326" />
    </clipPath>
    <clipPath
       clipPathUnits="userSpaceOnUse"
       id="clipPath247">
      <rect
         style="fill:#00ff00;stroke:#00ff00;stroke-width:0.264583"
         id="rect249"
         width="210.16577"
         height="177.4442"
         x="0.0080678454"
         y="0.077451326" />
    </clipPath>
    <clipPath
       clipPathUnits="userSpaceOnUse"
       id="clipPath251">
      <rect
         style="fill:#00ff00;stroke:#00ff00;stroke-width:0.264583"
         id="rect253"
         width="210.16577"
         height="177.4442"
         x="0.0080678454"
         y="0.077451326" />
    </clipPath>
    <clipPath
       clipPathUnits="userSpaceOnUse"
       id="clipPath255">
      <rect
         style="fill:#00ff00;stroke:#00ff00;stroke-width:0.264583"
         id="rect257"
         width="210.16577"
         height="177.4442"
         x="0.0080678454"
         y="0.077451326" />
    </clipPath>
    <clipPath
       clipPathUnits="userSpaceOnUse"
       id="clipPath259">
      <rect
         style="fill:#00ff00;stroke:#00ff00;stroke-width:0.264583"
         id="rect261"
         width="210.16577"
         height="177.4442"
         x="0.0080678454"
         y="0.077451326" />
    </clipPath>
    <clipPath
       clipPathUnits="userSpaceOnUse"
       id="clipPath263">
      <rect
         style="fill:#00ff00;stroke:#00ff00;stroke-width:0.264583"
         id="rect265"
         width="210.16577"
         height="177.4442"
         x="0.0080678454"
         y="0.077451326" />
    </clipPath>
    <clipPath
       clipPathUnits="userSpaceOnUse"
       id="clipPath267">
      <rect
         style="fill:#00ff00;stroke:#00ff00;stroke-width:0.264583"
         id="rect269"
         width="210.16577"
         height="177.4442"
         x="0.0080678454"
         y="0.077451326" />
    </clipPath>
    <clipPath
       clipPathUnits="userSpaceOnUse"
       id="clipPath271">
      <rect
         style="fill:#00ff00;stroke:#00ff00;stroke-width:0.264583"
         id="rect273"
         width="210.16577"
         height="177.4442"
         x="0.0080678454"
         y="0.077451326" />
    </clipPath>
    <clipPath
       clipPathUnits="userSpaceOnUse"
       id="clipPath275">
      <rect
         style="fill:#00ff00;stroke:#00ff00;stroke-width:0.264583"
         id="rect277"
         width="210.16577"
         height="177.4442"
         x="0.0080678454"
         y="0.077451326" />
    </clipPath>
    <clipPath
       clipPathUnits="userSpaceOnUse"
       id="clipPath279">
      <rect
         style="fill:#00ff00;stroke:#00ff00;stroke-width:0.264583"
         id="rect281"
         width="210.16577"
         height="177.4442"
         x="0.0080678454"
         y="0.077451326" />
    </clipPath>
    <clipPath
       clipPathUnits="userSpaceOnUse"
       id="clipPath283">
      <rect
         style="fill:#00ff00;stroke:#00ff00;stroke-width:0.264583"
         id="rect285"
         width="210.16577"
         height="177.4442"
         x="0.0080678454"
         y="0.077451326" />
    </clipPath>
    <clipPath
       clipPathUnits="userSpaceOnUse"
       id="clipPath287">
      <rect
         style="fill:#00ff00;stroke:#00ff00;stroke-width:0.264583"
         id="rect289"
         width="210.16577"
         height="177.4442"
         x="0.0080678454"
         y="0.077451326" />
    </clipPath>
    <clipPath
       clipPathUnits="userSpaceOnUse"
       id="clipPath291">
      <rect
         style="fill:#00ff00;stroke:#00ff00;stroke-width:0.264583"
         id="rect293"
         width="210.16577"
         height="177.4442"
         x="0.0080678454"
         y="0.077451326" />
    </clipPath>
    <clipPath
       clipPathUnits="userSpaceOnUse"
       id="clipPath295">
      <rect
         style="fill:#00ff00;stroke:#00ff00;stroke-width:0.264583"
         id="rect297"
         width="210.16577"
         height="177.4442"
         x="0.0080678454"
         y="0.077451326" />
    </clipPath>
    <clipPath
       clipPathUnits="userSpaceOnUse"
       id="clipPath299">
      <rect
         style="fill:#00ff00;stroke:#00ff00;stroke-width:0.264583"
         id="rect301"
         width="210.16577"
         height="177.4442"
         x="0.0080678454"
         y="0.077451326" />
    </clipPath>
  </defs>
  <g
     inkscape:label="Layer 1"
     inkscape:groupmode="layer"
     id="layer1">
    <text
       xml:space="preserve"
       style="font-style:normal;font-weight:normal;font-size:10.5833px;line-height:1.25;font-family:sans-serif;fill:#000000;fill-opacity:1;stroke:none;stroke-width:0.264583"
       x="52.369194"
       y="20.120399"
       id="text9867"
       clip-path="url(#clipPath299)"><tspan
         sodipodi:role="line"
         id="tspan9865"
         style="stroke-width:0.264583"
         x="52.369194"
         y="20.120399">Font-face</tspan></text>
    <path
       style="fill:none;stroke:#000000;stroke-width:0.264583px;stroke-linecap:butt;stroke-linejoin:miter;stroke-opacity:1"
       d="m 66.757392,24.470987 c -0.282985,0.174259 0.05496,0.430555 0,0.634939 -0.513935,1.911023 -0.978178,3.846475 -1.555078,5.739063 -0.0824,0.270338 -0.646049,1.942021 -0.748293,2.504662 -0.176232,0.969801 -0.121379,1.88908 -0.01089,2.860051 0.0313,0.275069 0.09159,0.547264 0.106093,0.823727 0.02093,0.399079 -0.05709,0.803355 0,1.198883 0.08876,0.614955 0.580885,1.192646 0.580885,1.828173 0,0.159845 0.08985,0.687784 -0.08068,0.687784"
       id="path14924"
       clip-path="url(#clipPath295)" />
    <path
       style="fill:none;stroke:#000000;stroke-width:0.264583px;stroke-linecap:butt;stroke-linejoin:miter;stroke-opacity:1"
       d="m 62.008657,39.038291 3.040772,1.709978"
       id="path14926"
       clip-path="url(#clipPath291)" />
    <path
       style="fill:none;stroke:#000000;stroke-width:0.264583px;stroke-linecap:butt;stroke-linejoin:miter;stroke-opacity:1"
       d="m 66.860257,38.777295 -1.810828,1.970974"
       id="path14928"
       clip-path="url(#clipPath287)" />
    <path
       style="fill:none;stroke:#000000;stroke-width:0.264583px;stroke-linecap:butt;stroke-linejoin:miter;stroke-opacity:1"
       d="m 85.121422,23.996194 c 2.142583,1.108844 3.716838,2.945149 4.540986,5.207794 0.354767,0.973981 0.788924,3.675263 1.065763,4.505894 0.162303,0.48697 0.648552,0.795829 0.968949,1.196863 1.158944,1.450621 2.093264,2.430037 4.121862,2.430037 l 0.694239,-2.783811"
       id="path14930"
       clip-path="url(#clipPath283)" />
    <path
       style="fill:none;stroke:#000000;stroke-width:0.264583px;stroke-linecap:butt;stroke-linejoin:miter;stroke-opacity:1"
       d="m 95.818982,37.336782 -2.834638,0.659143"
       id="path14932"
       clip-path="url(#clipPath279)" />
    <text
       xml:space="preserve"
       style="font-style:normal;font-weight:normal;font-size:10.5833px;line-height:1.25;font-family:sans-serif;fill:#000000;fill-opacity:1;stroke:none;stroke-width:0.264583"
       x="54.965023"
       y="52.338535"
       id="text50232"
       clip-path="url(#clipPath275)"><tspan
         sodipodi:role="line"
         id="tspan50230"
         style="stroke-width:0.264583"
         x="54.965023"
         y="52.338535">IDs</tspan></text>
    <text
       xml:space="preserve"
       style="font-style:normal;font-weight:normal;font-size:10.5833px;line-height:1.25;font-family:sans-serif;fill:#000000;fill-opacity:1;stroke:none;stroke-width:0.264583"
       x="93.58741"
       y="50.491409"
       id="text54262"
       clip-path="url(#clipPath271)"><tspan
         sodipodi:role="line"
         id="tspan54260"
         style="stroke-width:0.264583"
         x="93.58741"
         y="50.491409">Kerning</tspan></text>
    <path
       style="fill:none;stroke:#000000;stroke-width:0.264583px;stroke-linecap:butt;stroke-linejoin:miter;stroke-opacity:1"
       d="m 106.87274,17.87633 c 0.0249,0.01045 0.70237,0.310647 0.85721,0.332799 0.98666,0.141157 3.08312,0.242037 3.83666,0.306174 2.2875,0.1947 4.57631,0.374707 6.86251,0.584112 4.6116,0.4224 8.65252,0.867174 13.27161,1.600258 1.77624,0.281902 3.53167,0.682285 5.30017,1.009287 1.45964,0.269894 2.93129,0.476645 4.38406,0.781371 2.94521,0.617773 5.85997,1.37582 8.80686,1.985497 2.33228,0.482519 6.88949,0.767456 8.72497,2.469971 1.56478,1.451421 2.29634,4.278603 1.88828,6.361093 -0.14023,0.715695 -0.88019,1.538515 -0.67931,2.331606 0.10756,0.424659 0.3357,0.840476 0.50424,1.250114 0.56674,1.377447 1.08916,2.732736 1.46149,4.176723 0.13511,0.524005 0.36856,2.524429 -0.428,2.524429"
       id="path71432"
       clip-path="url(#clipPath267)" />
    <path
       style="fill:none;stroke:#000000;stroke-width:0.264583px;stroke-linecap:butt;stroke-linejoin:miter;stroke-opacity:1"
       d="m 161.66349,43.589764 -4.66563,-1.832207"
       id="path71434"
       clip-path="url(#clipPath263)" />
    <path
       style="fill:none;stroke:#000000;stroke-width:0.264583px;stroke-linecap:butt;stroke-linejoin:miter;stroke-opacity:1"
       d="m 161.66349,43.589764 5.1965,-2.580499"
       id="path71436"
       clip-path="url(#clipPath259)" />
    <text
       xml:space="preserve"
       style="font-style:normal;font-weight:normal;font-size:10.5833px;line-height:1.25;font-family:sans-serif;fill:#000000;fill-opacity:1;stroke:none;stroke-width:0.264583"
       x="155.65981"
       y="55.443447"
       id="text75584"
       clip-path="url(#clipPath255)"><tspan
         sodipodi:role="line"
         style="stroke-width:0.264583"
         x="155.65981"
         y="55.443447"
         id="tspan75586">Outlines</tspan></text>
    <path
       style="fill:none;stroke:#000000;stroke-width:0.264583px;stroke-linecap:butt;stroke-linejoin:miter;stroke-opacity:1"
       d="m 50.562804,56.437407 c 0.845498,2.013326 3.617581,2.541857 5.486136,2.957671 3.052291,0.679233 5.98524,0.787228 9.111018,0.710375 3.1913,-0.07846 3.682544,-0.37895 6.419584,-0.02177 2.485496,0.324339 5.074404,0.930671 7.428873,1.818491 1.331778,0.502185 3.049312,1.429711 4.337275,2.03108 0.753549,0.351845 2.701473,1.086037 2.860455,2.130316 0.05318,0.349327 7.94e-4,0.896678 -0.335219,1.005658 -0.176678,0.05728 0.242454,-0.451366 0.415089,-0.705938 0.21911,-0.323101 1.60941,-0.710697 1.663187,-0.735788 3.269805,-1.525569 5.401048,-2.995959 9.206621,-3.414715 2.386232,-0.262575 4.673637,0.55181 7.035567,0.682136 1.19384,0.06587 2.39131,0 3.58696,0 0.94919,0 1.90227,0.08599 2.84755,0 3.71732,-0.338151 2.98003,-0.83638 7.05533,-2.069 1.57371,-0.475985 3.17095,-0.90098 4.79553,-1.153702 0.86323,-0.134284 1.74723,0 2.62084,0 3.38599,0 1.61991,-0.131188 5.5422,0.547 1.88495,0.325919 3.09627,0.621019 4.98109,0.199276 0.26291,-0.05883 1.74421,-0.287494 2.14847,-0.761201 0.25845,-0.302855 -0.51164,-1.107612 -0.67447,-1.39977"
       id="path80137"
       clip-path="url(#clipPath251)" />
    <path
       style="fill:none;stroke:#000000;stroke-width:0.264583px;stroke-linecap:butt;stroke-linejoin:miter;stroke-opacity:1"
       d="m 86.454229,69.37218 c 0.725898,4.107833 -0.716827,8.214267 -0.716827,12.331702"
       id="path80139"
       clip-path="url(#clipPath247)" />
    <path
       style="fill:none;stroke:#000000;stroke-width:0.264583px;stroke-linecap:butt;stroke-linejoin:miter;stroke-opacity:1"
       d="m 89.296177,79.754541 c -0.04337,0.04337 -0.08783,0.193747 -0.09293,0.195847 -0.761676,0.298333 0.938734,-0.533347 -0.791456,0.295233 -0.272915,0.130696 -0.540744,0.272745 -0.801288,0.426635 -0.809019,0.477859 -0.447373,0.38227 -1.344959,0.861597 -0.169783,0.09067 -0.35452,0.09902 -0.528142,0.170029 -0.288484,-0.152073 0.08064,0.04919 -0.541805,-0.390936 -0.20079,-0.141977 -0.408713,-0.273592 -0.613863,-0.409191 -0.686729,-0.453912 -0.95043,-0.644537 -1.640697,-1.025222 -0.200333,-0.110484 -0.404338,-0.214568 -0.611442,-0.311772 -0.03852,-0.01808 -0.165992,-0.03257 -0.123438,-0.03257 0.02741,0 0.06488,0.08148 0.08829,0.102915"
       id="path80143"
       clip-path="url(#clipPath243)" />
    <text
       xml:space="preserve"
       style="font-style:normal;font-weight:normal;font-size:10.5833px;line-height:1.25;font-family:sans-serif;fill:#000000;fill-opacity:1;stroke:none;stroke-width:0.264583"
       x="65.282188"
       y="96.683044"
       id="text81093"
       clip-path="url(#clipPath239)"><tspan
         sodipodi:role="line"
         id="tspan81091"
         style="stroke-width:0.264583"
         x="65.282188"
         y="96.683044">Shaping</tspan></text>
    <path
       style="fill:none;stroke:#000000;stroke-width:0.264583px;stroke-linecap:butt;stroke-linejoin:miter;stroke-opacity:1"
       d="m 85.006051,104.69241 c 0.405815,2.76659 1.16055,5.77089 3.698301,7.33407 1.450059,0.8932 1.787456,0.75795 3.511933,1.04358 2.290683,0.37941 2.558926,0.50472 4.977861,0.57846 4.948744,0.15086 2.1087,-0.0221 6.114214,-0.16337 2.88472,-0.10174 1.3002,0.17996 2.84715,-0.1424 -0.51422,1.41145 -1.85474,1.60094 -3.04158,2.29208 -0.98888,0.57586 -0.63514,0.60078 -0.92296,0.43647"
       id="path90018"
       clip-path="url(#clipPath235)" />
    <path
       style="fill:none;stroke:#000000;stroke-width:0.264583px;stroke-linecap:butt;stroke-linejoin:miter;stroke-opacity:1"
       d="m 106.15551,113.34275 c -0.22684,-0.0295 -0.46034,-0.0264 -0.68053,-0.0883 -0.0331,-0.009 0.0151,-0.0723 0,-0.10327 -0.15925,-0.32769 -0.332,-0.64919 -0.51795,-0.96249 -0.58601,-0.98734 -0.89253,-1.6889 -1.87255,-2.18034"
       id="path90020"
       clip-path="url(#clipPath231)" />
    <text
       xml:space="preserve"
       style="font-style:normal;font-weight:normal;font-size:10.5833px;line-height:1.25;font-family:sans-serif;white-space:pre;inline-size:67.8538;fill:#000000;fill-opacity:1;stroke:none;stroke-width:0.264583"
       x="78.45295"
       y="103.30554"
       id="text92290"
       transform="translate(35.677427,4.1993138)"
       clip-path="url(#clipPath227)"><tspan
         x="78.45295"
         y="103.30554"
         id="tspan434"><tspan
           style="font-size:3.52778px;-inkscape-font-specification:'sans-serif, Normal'"
           id="tspan432">Shaped text</tspan></tspan></text>
    <text
       xml:space="preserve"
       style="font-style:normal;font-weight:normal;font-size:10.5833px;line-height:1.25;font-family:sans-serif;fill:#000000;fill-opacity:1;stroke:none;stroke-width:0.264583"
       x="18.963472"
       y="73.137444"
       id="text119314"
       clip-path="url(#clipPath223)"><tspan
         sodipodi:role="line"
         id="tspan119312"
         style="font-style:normal;font-variant:normal;font-weight:normal;font-stretch:normal;font-size:3.52778px;font-family:sans-serif;-inkscape-font-specification:'sans-serif, Normal';font-variant-ligatures:normal;font-variant-caps:normal;font-variant-numeric:normal;font-variant-east-asian:normal;stroke-width:0.264583"
         x="18.963472"
         y="73.137444">Unicode text</tspan></text>
    <path
       style="fill:none;stroke:#000000;stroke-width:0.264583px;stroke-linecap:butt;stroke-linejoin:miter;stroke-opacity:1"
       d="m 31.829668,78.17904 c 2.244588,5.540539 -0.01654,0.359667 1.147652,2.473603 1.062021,1.92841 1.911299,3.982632 3.132341,5.814496 2.147186,3.221302 6.138222,5.694305 9.796785,6.754802 3.844943,1.114526 5.0204,0.680352 9.244542,1.167016 0.509309,0.05868 3.650241,0.739611 4.413514,0.94071 1.179907,0.31087 0.419291,0.274307 1.150879,0.274307 -1.862913,1.505916 -4.300199,1.443742 -6.583362,1.443742"
       id="path127699"
       clip-path="url(#clipPath219)" />
    <path
       style="fill:none;stroke:#000000;stroke-width:0.264583px;stroke-linecap:butt;stroke-linejoin:miter;stroke-opacity:1"
       d="M 60.715381,95.603972 C 58.67379,93.588498 57.136606,91.113164 55.365996,88.860465"
       id="path127701"
       clip-path="url(#clipPath215)" />
    <text
       xml:space="preserve"
       style="font-style:normal;font-variant:normal;font-weight:normal;font-stretch:normal;font-size:3.52778px;line-height:1.25;font-family:sans-serif;-inkscape-font-specification:'sans-serif, Normal';font-variant-ligatures:normal;font-variant-caps:normal;font-variant-numeric:normal;font-variant-east-asian:normal;fill:#000000;fill-opacity:1;stroke:none;stroke-width:0.264583"
       x="112.66949"
       y="119.50699"
       id="text137429"><tspan
         sodipodi:role="line"
         id="tspan141371"
         x="112.66949"
         y="119.50699" /></text>
    <text
       xml:space="preserve"
       style="font-size:3.52777px;line-height:1.25;font-family:sans-serif;-inkscape-font-specification:'sans-serif, Normal';stroke-width:0.264583"
       x="112.43915"
       y="114.74857"
       id="text144213"
       clip-path="url(#clipPath211)"><tspan
         sodipodi:role="line"
         id="tspan144211"
         style="stroke-width:0.264583"
         x="112.43915"
         y="114.74857">Text symbols =&gt; Glyph IDs</tspan><tspan
         sodipodi:role="line"
         style="stroke-width:0.264583"
         x="112.43915"
         y="119.15829"
         id="tspan148999">+ spacing determined by</tspan><tspan
         sodipodi:role="line"
         style="stroke-width:0.264583"
         x="112.43915"
         y="123.568"
         id="tspan149001">kerning rules</tspan><tspan
         sodipodi:role="line"
         style="stroke-width:0.264583"
         x="112.43915"
         y="127.97771"
         id="tspan144215" /></text>
    <text
       xml:space="preserve"
       style="font-size:3.52777px;line-height:1.25;font-family:sans-serif;-inkscape-font-specification:'sans-serif, Normal';stroke-width:0.264583"
       x="163.71112"
       y="59.04937"
       id="text179883"
       clip-path="url(#clipPath207)"><tspan
         sodipodi:role="line"
         id="tspan179881"
         style="stroke-width:0.264583"
         x="163.71112"
         y="59.04937">(Draw commands)</tspan></text>
    <path
       style="fill:none;stroke:#000000;stroke-width:0.264583px;stroke-linecap:butt;stroke-linejoin:miter;stroke-opacity:1"
       d="m 182.19132,63.74889 c -0.73119,5.380215 -3.47239,12.903454 -2.82213,18.200253 0.10886,0.886722 0.36324,1.750283 0.49859,2.633345 0.21243,1.385928 -0.36933,2.751418 0.87617,3.770106 2.31344,-0.533053 2.13464,-1.821277 3.25457,-3.654733 0.34234,-0.560443 0.80195,-1.040215 1.20292,-1.560322"
       id="path181638"
       clip-path="url(#clipPath203)" />
    <path
       style="fill:none;stroke:#000000;stroke-width:0.264583px;stroke-linecap:butt;stroke-linejoin:miter;stroke-opacity:1"
       d="m 180.74395,88.352592 c -2.26161,-0.31732 -1.18482,-0.06395 -3.88789,-1.432042 -3.19581,-1.617479 -1.61869,-0.667469 -3.23118,-1.672463"
       id="path181640"
       clip-path="url(#clipPath199)" />
    <path
       id="text184732"
       style="font-size:3.52777px;line-height:1.25;font-family:sans-serif;-inkscape-font-specification:'sans-serif, Normal';stroke-width:0.999999"
       d="m 642.54492,352.67969 -1.82226,2.44922 h 0.99609 l 2.12305,-2.44922 z m 11.31641,0.53515 v 1.51563 h 1.19726 v -1.51563 z m -24.29688,0.41016 v 9.71875 h 3.48828 c 1.08941,0 1.92926,-0.2359 2.51954,-0.70898 0.59027,-0.47309 0.88671,-1.14367 0.88671,-2.01172 0,-0.65972 -0.18077,-1.20812 -0.54101,-1.64649 -0.3559,-0.4427 -0.85721,-0.73416 -1.50391,-0.87304 0.5382,-0.0868 0.94683,-0.30665 1.22461,-0.65821 0.27778,-0.35156 0.41602,-0.82335 0.41602,-1.41797 0,-0.76822 -0.27192,-1.36067 -0.81446,-1.77734 -0.54253,-0.41667 -1.3138,-0.625 -2.3164,-0.625 z m 1.31446,1.08008 h 1.94726 c 0.64236,0 1.11914,0.12218 1.43164,0.36523 0.31684,0.24306 0.47461,0.60916 0.47461,1.09961 0,0.49479 -0.15777,0.86437 -0.47461,1.10742 -0.3125,0.23872 -0.78928,0.35743 -1.43164,0.35743 h -1.94726 z m 10.83398,1.17187 c -1.09375,0 -1.96463,0.35157 -2.61133,1.05469 -0.64236,0.69878 -0.96289,1.64432 -0.96289,2.83789 0,1.15451 0.33855,2.07097 1.01563,2.74805 0.68142,0.67708 1.60243,1.01562 2.76562,1.01562 0.46441,0 0.92361,-0.0471 1.375,-0.14258 0.45139,-0.0955 0.89063,-0.23567 1.32031,-0.41796 v -1.13282 c -0.42534,0.2257 -0.85503,0.39497 -1.28906,0.50782 -0.42968,0.11284 -0.87391,0.16992 -1.33398,0.16992 -0.79427,0 -1.41428,-0.21485 -1.86133,-0.64453 -0.44271,-0.43403 -0.6901,-1.06402 -0.74219,-1.88867 h 5.50781 v -0.58594 c 0,-1.08507 -0.28646,-1.94098 -0.85937,-2.57032 -0.56858,-0.63367 -1.34332,-0.95117 -2.32422,-0.95117 z m 18.90625,0 c -1.09375,0 -1.96463,0.35157 -2.61133,1.05469 -0.64236,0.69878 -0.96289,1.64432 -0.96289,2.83789 0,1.15451 0.33855,2.07097 1.01563,2.74805 0.68142,0.67708 1.60243,1.01562 2.76562,1.01562 0.46441,0 0.92361,-0.0471 1.375,-0.14258 0.45139,-0.0955 0.89063,-0.23567 1.32031,-0.41796 v -1.13282 c -0.42534,0.2257 -0.85503,0.39497 -1.28906,0.50782 -0.42968,0.11284 -0.87391,0.16992 -1.33398,0.16992 -0.79427,0 -1.41428,-0.21485 -1.86133,-0.64453 -0.44271,-0.43403 -0.6901,-1.06402 -0.74219,-1.88867 h 5.50781 v -0.58594 c 0,-1.08507 -0.28646,-1.94098 -0.85937,-2.57032 -0.56858,-0.63367 -1.34332,-0.95117 -2.32422,-0.95117 z m 8.76172,0 c -0.57726,0 -1.06706,0.10916 -1.4707,0.32617 -0.40365,0.21268 -0.73069,0.53972 -0.98243,0.98243 v -1.13282 h -1.20507 v 7.29102 h 1.20507 v -3.83984 c 0,-0.82465 0.17882,-1.45617 0.53907,-1.89453 0.36458,-0.44271 0.88542,-0.66407 1.5625,-0.66407 0.19097,0 0.36523,0.0195 0.52148,0.0586 0.16059,0.0347 0.30881,0.0898 0.44336,0.16797 l -0.008,-1.23047 c -0.12153,-0.0217 -0.23221,-0.0362 -0.33203,-0.0449 -0.0998,-0.013 -0.19098,-0.0195 -0.27344,-0.0195 z m 9.25195,0 c -1.13715,0 -2.03407,0.34007 -2.68945,1.02149 -0.65104,0.68142 -0.97656,1.6174 -0.97656,2.80664 0,1.17187 0.324,2.10286 0.9707,2.79297 0.6467,0.6901 1.5191,1.03515 2.61719,1.03515 0.40364,0 0.78277,-0.0391 1.13867,-0.11718 0.36024,-0.0781 0.70877,-0.19532 1.04297,-0.35157 v -1.10742 c -0.33854,0.18663 -0.68056,0.32834 -1.02344,0.42383 -0.33854,0.0912 -0.68012,0.13672 -1.02734,0.13672 -0.77691,0 -1.38086,-0.24588 -1.81055,-0.73633 -0.42969,-0.49479 -0.64453,-1.18642 -0.64453,-2.07617 0,-0.88976 0.21484,-1.57986 0.64453,-2.07031 0.42969,-0.49479 1.03364,-0.74219 1.81055,-0.74219 0.34722,0 0.6888,0.0471 1.02734,0.14258 0.34288,0.0911 0.6849,0.23133 1.02344,0.41796 v -1.12109 c -0.32986,-0.15191 -0.67188,-0.2641 -1.02344,-0.33789 -0.35156,-0.0781 -0.71115,-0.11719 -1.08008,-0.11719 z m 16.25,0 c -0.57725,0 -1.06706,0.10916 -1.4707,0.32617 -0.40365,0.21268 -0.73264,0.53972 -0.98438,0.98243 v -1.13282 h -1.20312 v 7.29102 h 1.20312 v -3.83984 c 0,-0.82465 0.18078,-1.45617 0.54102,-1.89453 0.36458,-0.44271 0.88542,-0.66407 1.5625,-0.66407 0.19097,0 0.36523,0.0195 0.52148,0.0586 0.16059,0.0347 0.30686,0.0898 0.44141,0.16797 l -0.006,-1.23047 c -0.12153,-0.0217 -0.2322,-0.0362 -0.33203,-0.0449 -0.0998,-0.013 -0.19097,-0.0195 -0.27344,-0.0195 z m 12.8125,0 c -1.09375,0 -1.96463,0.35157 -2.61133,1.05469 -0.64236,0.69878 -0.96289,1.64432 -0.96289,2.83789 0,1.15451 0.33855,2.07097 1.01563,2.74805 0.68142,0.67708 1.60438,1.01562 2.76758,1.01562 0.46441,0 0.92166,-0.0471 1.37304,-0.14258 0.45139,-0.0955 0.89258,-0.23567 1.32227,-0.41796 v -1.13282 c -0.42535,0.2257 -0.85504,0.39497 -1.28906,0.50782 -0.42969,0.11284 -0.87587,0.16992 -1.33594,0.16992 -0.79427,0 -1.41428,-0.21485 -1.86133,-0.64453 -0.44271,-0.43403 -0.6901,-1.06402 -0.74219,-1.88867 h 5.50782 v -0.58594 c 0,-1.08507 -0.28646,-1.94098 -0.85938,-2.57032 -0.56857,-0.63367 -1.34332,-0.95117 -2.32422,-0.95117 z m 7.4668,0 c -0.8941,0 -1.5842,0.18729 -2.07031,0.56055 -0.48611,0.37326 -0.72852,0.90213 -0.72852,1.58789 0,0.56424 0.16428,1.00846 0.49414,1.33399 0.32986,0.32117 0.86719,0.56054 1.60938,0.71679 l 0.41601,0.0977 c 0.74219,0.16059 1.22244,0.32834 1.43946,0.50195 0.22135,0.17361 0.33203,0.42253 0.33203,0.74805 0,0.35156 -0.15322,0.625 -0.45703,0.82031 -0.30382,0.19097 -0.73655,0.28711 -1.30079,0.28711 -0.421,0 -0.84765,-0.0571 -1.27734,-0.16992 -0.42969,-0.11719 -0.86589,-0.29145 -1.30859,-0.52149 v 1.23828 c 0.46875,0.15191 0.91493,0.26411 1.33593,0.3379 0.42535,0.0781 0.83204,0.11718 1.22266,0.11718 0.9375,0 1.67318,-0.19683 2.20703,-0.59179 0.5382,-0.39497 0.8086,-0.9323 0.8086,-1.60938 0,-0.59462 -0.18078,-1.05686 -0.54102,-1.38672 -0.3559,-0.3342 -0.95985,-0.59114 -1.81055,-0.77343 l -0.41015,-0.0918 c -0.64236,-0.14323 -1.06858,-0.29297 -1.28125,-0.44922 -0.21268,-0.16059 -0.32032,-0.38043 -0.32032,-0.6582 0,-0.36459 0.14823,-0.63802 0.44336,-0.82032 0.29948,-0.18229 0.74718,-0.27343 1.3418,-0.27343 0.39062,0 0.76823,0.044 1.13281,0.13086 0.36459,0.0868 0.71615,0.21701 1.05469,0.39062 v -1.13281 c -0.32986,-0.13021 -0.69141,-0.22787 -1.08203,-0.29297 -0.39062,-0.0651 -0.80729,-0.0977 -1.25,-0.0977 z m -68.82031,0.17578 v 0.95704 h 4.34179 l -4.50586,5.24023 v 1.09375 h 5.85352 v -0.95703 h -4.50586 l 4.50586,-5.24024 v -1.09375 z m 7.51953,0 v 7.29102 h 1.19726 v -7.29102 z m 28.83398,0 v 4.41407 c 0,1.0026 0.21637,1.76432 0.65039,2.28515 0.43403,0.52084 1.07053,0.78125 1.90821,0.78125 0.50781,0 0.95204,-0.10568 1.33398,-0.31836 0.38628,-0.21701 0.72483,-0.54752 1.01563,-0.99023 v 1.11914 h 1.19921 v -7.29102 h -1.19921 v 4.13477 c 0,0.7118 -0.18881,1.27322 -0.56641,1.68555 -0.37326,0.41232 -0.8826,0.61914 -1.5293,0.61914 -0.53819,0 -0.94184,-0.17275 -1.21093,-0.51563 -0.2691,-0.34722 -0.4043,-0.86458 -0.4043,-1.55468 v -4.36915 z m 13.19727,0 2.73437,7.29102 h 1.62696 l 2.73437,-7.29102 h -1.26953 l -2.2793,6.11915 -2.27734,-6.11915 z m -54.16797,0.83985 c 0.59028,0 1.06402,0.19531 1.41992,0.58594 0.36024,0.39062 0.54406,0.91297 0.55274,1.56836 l -4.26954,0.008 c 0.0608,-0.68576 0.29015,-1.2181 0.68946,-1.59571 0.40364,-0.3776 0.93902,-0.5664 1.60742,-0.5664 z m 18.90625,0 c 0.59028,0 1.06402,0.19531 1.41992,0.58594 0.36024,0.39062 0.54406,0.91297 0.55274,1.56836 l -4.26954,0.008 c 0.0608,-0.68576 0.29015,-1.2181 0.68946,-1.59571 0.40364,-0.3776 0.93902,-0.5664 1.60742,-0.5664 z m 47.07812,0 c 0.59028,0 1.06207,0.19531 1.41797,0.58594 0.36025,0.39062 0.54601,0.91297 0.55469,1.56836 l -4.27148,0.008 c 0.0608,-0.68576 0.29014,-1.2181 0.68945,-1.59571 0.40364,-0.3776 0.94097,-0.5664 1.60937,-0.5664 z m -76.83007,1.81054 h 2.10937 c 0.70746,0 1.22982,0.14475 1.56836,0.43555 0.34288,0.28646 0.51563,0.73416 0.51563,1.3418 0,0.6033 -0.17275,1.05252 -0.51563,1.34765 -0.33854,0.2908 -0.8609,0.43555 -1.56836,0.43555 h -2.10937 z"
       transform="scale(0.26458333)"
       clip-path="url(#clipPath195)" />
    <text
       xml:space="preserve"
       transform="scale(0.26458333)"
       id="text199507"
       style="font-size:13.3333px;line-height:1.25;font-family:sans-serif;-inkscape-font-specification:'sans-serif, Normal';white-space:pre;shape-inside:url(#rect199509)" />
    <path
       style="fill:none;stroke:#000000;stroke-width:0.264583px;stroke-linecap:butt;stroke-linejoin:miter;stroke-opacity:1"
       d="m 182.84563,104.67304 c 0.36457,0.93536 0.1216,1.77412 0.20653,2.70837 0.0441,0.48482 0.17439,0.96001 0.20654,1.44576 0.0679,1.02584 -0.1741,2.29213 0,3.32718 0.1227,0.72951 0.29562,1.36763 0.20653,2.1759 -0.2912,2.64205 -1.17905,5.21061 -0.99395,7.90084 0.16158,2.3485 0.16936,4.5166 -0.0145,6.85687 -0.0781,0.99343 0.24935,2.27313 0,3.24811 -0.41867,1.63707 -0.53715,3.25624 -0.41307,4.95769 0.0451,0.61886 0.16835,1.22954 0.25252,1.84431 0.17911,0.83422 0.4651,1.65248 0.53732,2.50265 0.12586,1.48156 -0.17196,2.98378 0,4.46071 0.21917,1.88236 0.68534,3.7595 0.85761,5.64426 0.14084,1.54086 0,3.22409 0,4.7681 0,0.82991 0.13644,1.67112 0,2.48974 -0.0761,0.45679 -0.10934,2.18496 -0.20654,2.47844 -0.34522,1.04241 -0.54088,2.04722 -0.67043,3.15856 -0.11338,0.97254 -0.88101,1.51404 -0.88101,2.44294 -0.91439,-1.15292 -1.90085,-2.21539 -2.3752,-3.62568"
       id="path202074"
       clip-path="url(#clipPath191)" />
    <path
       style="fill:none;stroke:#000000;stroke-width:0.264583px;stroke-linecap:butt;stroke-linejoin:miter;stroke-opacity:1"
       d="m 181.93318,167.08347 c 1.17315,-0.53262 2.54896,-0.54466 3.74991,-0.98589 0.92581,-0.34014 1.34134,-0.80807 2.24205,-0.94151 0.22,-0.0326 0.45077,0.0512 0.66721,0 1.28564,-0.3039 -1.27921,-0.20654 0.61961,-0.20654"
       id="path202076"
       clip-path="url(#clipPath187)" />
    <text
       xml:space="preserve"
       style="font-size:3.52777px;line-height:1.25;font-family:sans-serif;-inkscape-font-specification:'sans-serif, Normal';white-space:pre;inline-size:27.4151;stroke-width:0.264583"
       x="183.67561"
       y="132.69832"
       id="text204874"
       clip-path="url(#clipPath183)"><tspan
         x="183.67561"
         y="132.69832"
         id="tspan438"><tspan
           style="text-align:center;text-anchor:middle"
           id="tspan436">To GPU on </tspan></tspan><tspan
         x="183.67561"
         y="137.10804"
         id="tspan442"><tspan
           style="text-align:center;text-anchor:middle"
           id="tspan440">initialization</tspan></tspan></text>
    <path
       style="fill:none;stroke:#000000;stroke-width:0.264583px;stroke-linecap:butt;stroke-linejoin:miter;stroke-opacity:1"
       d="m 201.00715,154.37258 c 0,0 -30.75947,-11.32241 -42.81202,-10.24535 -12.05256,1.07705 -38.09395,17.50238 -55.68185,15.89446 -17.587907,-1.60792 -50.4313,-14.42047 -57.55763,-14.08807 -7.126327,0.33239 -26.87238,10.8448 -32.741738,11.2256"
       id="path216469"
       clip-path="url(#clipPath179)" />
    <path
       style="fill:none;stroke:#000000;stroke-width:0.264583px;stroke-linecap:butt;stroke-linejoin:miter;stroke-opacity:1"
       d="m 130.88144,128.85076 c -0.0643,0.81615 0.12403,1.6515 0,2.46311 -1.00229,6.55855 -3.63783,18.07041 -4.30985,23.58554 -0.5617,4.60983 -0.56577,9.27107 -0.76806,13.91058 -0.004,0.0881 -0.82718,4.66806 0.90038,4.66806 -1.80947,-1.09538 -3.75233,-1.85772 -5.55633,-2.96171"
       id="path216504"
       clip-path="url(#clipPath175)" />
    <path
       style="fill:none;stroke:#000000;stroke-width:0.264583px;stroke-linecap:butt;stroke-linejoin:miter;stroke-opacity:1"
       d="m 126.70391,173.47805 c 0.11456,-0.23236 0.57604,-0.5825 0.34369,-0.69706 -0.23236,-0.11457 -0.54085,0.86511 -0.34369,0.69706 0.53105,-0.45264 0.82933,-1.14407 1.37637,-1.57727 2.4468,-1.38241 1.52532,-0.67601 2.92782,-1.88706"
       id="path216506"
       clip-path="url(#clipPath171)" />
    <text
       xml:space="preserve"
       style="font-size:3.52777px;line-height:1.25;font-family:sans-serif;-inkscape-font-specification:'sans-serif, Normal';white-space:pre;inline-size:25.8643;stroke-width:0.264583"
       x="100.35754"
       y="141.91745"
       id="text218314"
       transform="translate(6.8116824,-3.2045484)"
       clip-path="url(#clipPath167)"><tspan
         x="100.35754"
         y="141.91745"
         id="tspan444">To GPU on </tspan><tspan
         x="100.35754"
         y="146.32717"
         id="tspan446">draw calls</tspan></text>
  </g>
</svg>
